<mxfile host="app.diagrams.net" modified="2023-03-19T13:20:56.828Z" agent="5.0 (Windows NT 10.0; Win64; x64) AppleWebKit/537.36 (KHTML, like Gecko) Chrome/111.0.0.0 Safari/537.36" etag="y0D-79-dEevp9nfrGmz3" version="21.0.8" type="github">
  <diagram name="第 1 页" id="o3f88vZlB-4yNxfA5Zhy">
    <mxGraphModel dx="1050" dy="541" grid="0" gridSize="10" guides="1" tooltips="1" connect="1" arrows="1" fold="1" page="0" pageScale="1" pageWidth="827" pageHeight="1169" math="0" shadow="0">
      <root>
        <mxCell id="0" />
        <mxCell id="1" parent="0" />
        <mxCell id="GplnLBcpPccohGWg-e1e-1" value="" style="rounded=0;whiteSpace=wrap;html=1;fillColor=#dae8fc;strokeColor=#6c8ebf;" vertex="1" parent="1">
          <mxGeometry x="170" y="126" width="498" height="128" as="geometry" />
        </mxCell>
        <mxCell id="GplnLBcpPccohGWg-e1e-2" value="" style="rounded=0;whiteSpace=wrap;html=1;fillColor=#dae8fc;strokeColor=#6c8ebf;" vertex="1" parent="1">
          <mxGeometry x="170" y="266" width="498" height="128" as="geometry" />
        </mxCell>
        <mxCell id="GplnLBcpPccohGWg-e1e-3" value="" style="rounded=0;whiteSpace=wrap;html=1;fillColor=#dae8fc;strokeColor=#6c8ebf;" vertex="1" parent="1">
          <mxGeometry x="170" y="405" width="499" height="128" as="geometry" />
        </mxCell>
        <mxCell id="GplnLBcpPccohGWg-e1e-4" value="&lt;font style=&quot;font-size: 16px;&quot;&gt;前台用户模块&lt;/font&gt;" style="text;strokeColor=none;fillColor=none;html=1;fontSize=24;fontStyle=0;verticalAlign=middle;align=center;" vertex="1" parent="1">
          <mxGeometry x="237" y="77" width="100" height="40" as="geometry" />
        </mxCell>
        <mxCell id="GplnLBcpPccohGWg-e1e-5" value="&lt;font style=&quot;font-size: 16px;&quot;&gt;后台管理员模块&lt;/font&gt;" style="text;strokeColor=none;fillColor=none;html=1;fontSize=24;fontStyle=0;verticalAlign=middle;align=center;" vertex="1" parent="1">
          <mxGeometry x="473" y="79" width="100" height="36" as="geometry" />
        </mxCell>
        <mxCell id="GplnLBcpPccohGWg-e1e-6" value="" style="rounded=0;whiteSpace=wrap;html=1;fillStyle=dashed;dashed=1;dashPattern=12 12;" vertex="1" parent="1">
          <mxGeometry x="184" y="86" width="230" height="461" as="geometry" />
        </mxCell>
        <mxCell id="GplnLBcpPccohGWg-e1e-7" value="" style="rounded=0;whiteSpace=wrap;html=1;fillStyle=dashed;dashed=1;dashPattern=12 12;" vertex="1" parent="1">
          <mxGeometry x="424" y="88" width="230" height="461" as="geometry" />
        </mxCell>
        <mxCell id="GplnLBcpPccohGWg-e1e-8" value="&lt;font style=&quot;font-size: 16px;&quot;&gt;用户界面显示&lt;/font&gt;" style="rounded=0;whiteSpace=wrap;html=1;fillColor=#ffcd28;gradientColor=#ffa500;strokeColor=#d79b00;" vertex="1" parent="1">
          <mxGeometry x="218" y="147.5" width="162" height="85" as="geometry" />
        </mxCell>
        <mxCell id="GplnLBcpPccohGWg-e1e-9" value="&lt;font style=&quot;font-size: 16px;&quot;&gt;管理员界面展示&lt;/font&gt;" style="rounded=0;whiteSpace=wrap;html=1;fillColor=#ffcd28;gradientColor=#ffa500;strokeColor=#d79b00;" vertex="1" parent="1">
          <mxGeometry x="458" y="147.5" width="162" height="85" as="geometry" />
        </mxCell>
        <mxCell id="GplnLBcpPccohGWg-e1e-10" value="数据库" style="strokeWidth=2;html=1;shape=mxgraph.flowchart.database;whiteSpace=wrap;" vertex="1" parent="1">
          <mxGeometry x="264" y="422" width="70" height="82" as="geometry" />
        </mxCell>
        <mxCell id="GplnLBcpPccohGWg-e1e-11" value="数据库" style="strokeWidth=2;html=1;shape=mxgraph.flowchart.database;whiteSpace=wrap;" vertex="1" parent="1">
          <mxGeometry x="504" y="425" width="70" height="82" as="geometry" />
        </mxCell>
        <mxCell id="GplnLBcpPccohGWg-e1e-14" value="" style="group" vertex="1" connectable="0" parent="1">
          <mxGeometry x="101" y="126" width="60" height="127" as="geometry" />
        </mxCell>
        <mxCell id="GplnLBcpPccohGWg-e1e-12" value="" style="rounded=0;whiteSpace=wrap;html=1;dashed=1;" vertex="1" parent="GplnLBcpPccohGWg-e1e-14">
          <mxGeometry width="60" height="127" as="geometry" />
        </mxCell>
        <mxCell id="GplnLBcpPccohGWg-e1e-13" value="&lt;font style=&quot;font-size: 20px;&quot;&gt;表示层&lt;/font&gt;" style="text;strokeColor=none;fillColor=none;html=1;fontSize=24;fontStyle=0;verticalAlign=middle;align=center;labelPosition=center;verticalLabelPosition=middle;rotation=-90;" vertex="1" parent="GplnLBcpPccohGWg-e1e-14">
          <mxGeometry x="-20" y="44" width="100" height="40" as="geometry" />
        </mxCell>
        <mxCell id="GplnLBcpPccohGWg-e1e-15" value="" style="group" vertex="1" connectable="0" parent="1">
          <mxGeometry x="100" y="267" width="60" height="127" as="geometry" />
        </mxCell>
        <mxCell id="GplnLBcpPccohGWg-e1e-16" value="" style="rounded=0;whiteSpace=wrap;html=1;dashed=1;" vertex="1" parent="GplnLBcpPccohGWg-e1e-15">
          <mxGeometry width="60" height="127" as="geometry" />
        </mxCell>
        <mxCell id="GplnLBcpPccohGWg-e1e-17" value="&lt;font style=&quot;font-size: 20px;&quot;&gt;业务逻辑层&lt;/font&gt;" style="text;strokeColor=none;fillColor=none;html=1;fontSize=24;fontStyle=0;verticalAlign=middle;align=center;labelPosition=center;verticalLabelPosition=middle;rotation=-90;" vertex="1" parent="GplnLBcpPccohGWg-e1e-15">
          <mxGeometry x="-20" y="44" width="100" height="40" as="geometry" />
        </mxCell>
        <mxCell id="GplnLBcpPccohGWg-e1e-18" value="" style="group" vertex="1" connectable="0" parent="1">
          <mxGeometry x="99" y="405" width="60" height="127" as="geometry" />
        </mxCell>
        <mxCell id="GplnLBcpPccohGWg-e1e-19" value="" style="rounded=0;whiteSpace=wrap;html=1;dashed=1;" vertex="1" parent="GplnLBcpPccohGWg-e1e-18">
          <mxGeometry width="60" height="127" as="geometry" />
        </mxCell>
        <mxCell id="GplnLBcpPccohGWg-e1e-20" value="&lt;font style=&quot;font-size: 20px;&quot;&gt;数据访问层&lt;/font&gt;" style="text;strokeColor=none;fillColor=none;html=1;fontSize=24;fontStyle=0;verticalAlign=middle;align=center;labelPosition=center;verticalLabelPosition=middle;rotation=-90;" vertex="1" parent="GplnLBcpPccohGWg-e1e-18">
          <mxGeometry x="-20" y="44" width="100" height="40" as="geometry" />
        </mxCell>
        <mxCell id="GplnLBcpPccohGWg-e1e-21" value="影院管理模块" style="rounded=0;whiteSpace=wrap;html=1;fillColor=#fff2cc;gradientColor=#ffd966;strokeColor=#d6b656;" vertex="1" parent="1">
          <mxGeometry x="444" y="277" width="96" height="30" as="geometry" />
        </mxCell>
        <mxCell id="GplnLBcpPccohGWg-e1e-22" value="电影管理模块" style="rounded=0;whiteSpace=wrap;html=1;fillColor=#fff2cc;gradientColor=#ffd966;strokeColor=#d6b656;" vertex="1" parent="1">
          <mxGeometry x="552" y="277" width="96" height="30" as="geometry" />
        </mxCell>
        <mxCell id="GplnLBcpPccohGWg-e1e-23" value="评论管理" style="rounded=0;whiteSpace=wrap;html=1;fillColor=#fff2cc;gradientColor=#ffd966;strokeColor=#d6b656;" vertex="1" parent="1">
          <mxGeometry x="444" y="319" width="96" height="30" as="geometry" />
        </mxCell>
        <mxCell id="GplnLBcpPccohGWg-e1e-24" value="个人信息管理" style="rounded=0;whiteSpace=wrap;html=1;fillColor=#fff2cc;gradientColor=#ffd966;strokeColor=#d6b656;" vertex="1" parent="1">
          <mxGeometry x="552" y="319" width="96" height="30" as="geometry" />
        </mxCell>
        <mxCell id="GplnLBcpPccohGWg-e1e-25" value="权限管理模块" style="rounded=0;whiteSpace=wrap;html=1;fillColor=#fff2cc;gradientColor=#ffd966;strokeColor=#d6b656;" vertex="1" parent="1">
          <mxGeometry x="444" y="358" width="96" height="30" as="geometry" />
        </mxCell>
        <mxCell id="GplnLBcpPccohGWg-e1e-26" value="订单管理" style="rounded=0;whiteSpace=wrap;html=1;fillColor=#fff2cc;gradientColor=#ffd966;strokeColor=#d6b656;" vertex="1" parent="1">
          <mxGeometry x="552" y="358" width="96" height="30" as="geometry" />
        </mxCell>
        <mxCell id="GplnLBcpPccohGWg-e1e-27" value="购票模块" style="rounded=0;whiteSpace=wrap;html=1;fillColor=#fff2cc;gradientColor=#ffd966;strokeColor=#d6b656;" vertex="1" parent="1">
          <mxGeometry x="199" y="289" width="96" height="30" as="geometry" />
        </mxCell>
        <mxCell id="GplnLBcpPccohGWg-e1e-28" value="个人信息模块" style="rounded=0;whiteSpace=wrap;html=1;fillColor=#fff2cc;gradientColor=#ffd966;strokeColor=#d6b656;" vertex="1" parent="1">
          <mxGeometry x="308" y="291" width="96" height="30" as="geometry" />
        </mxCell>
        <mxCell id="GplnLBcpPccohGWg-e1e-29" value="信息查询模块" style="rounded=0;whiteSpace=wrap;html=1;fillColor=#fff2cc;gradientColor=#ffd966;strokeColor=#d6b656;" vertex="1" parent="1">
          <mxGeometry x="199" y="335" width="96" height="30" as="geometry" />
        </mxCell>
        <mxCell id="GplnLBcpPccohGWg-e1e-30" value="点评模块" style="rounded=0;whiteSpace=wrap;html=1;fillColor=#fff2cc;gradientColor=#ffd966;strokeColor=#d6b656;" vertex="1" parent="1">
          <mxGeometry x="308" y="335" width="96" height="30" as="geometry" />
        </mxCell>
      </root>
    </mxGraphModel>
  </diagram>
</mxfile>
